<svg id='footer_logo' xmlns="http://www.w3.org/2000/svg" width="244" height="109" viewBox="0 0 244 109"><g><g><path fill="#004cff" d="M55.893 39.413s-9.613 6.765-9.968 24.39c-.265 13.025 6.375 19.438 9.86 21.898C50.662 40.155 95.4-19.045 138.045 6.735c22.548 13.634 14.31 39.76 1.106 35.36-2.141-.715-3.653-1.573-4.65-2.279L132.125 56.1l9.651-5.962c-.893 3.987-.875 6.894.48 10.762-3.142-1.582-7.418-2.247-10.725-.74l-2.57 17.618c1.26 1.875 2.934 3.86 4.508 4.134 3.083.54 4.547-2.465 6.782-8.475 2.235-6.01 3.236-9.092 5.24-9.863 2.003-.771 5.085-.54 5.085-.54s-3.699 7.551-3.699 13.176 1.052 7.378 1.052 7.378-6.291.636-12.456 1.098c-6.164.463-20.96 3.16-20.96 3.16s.772-1.542 2.93-5.78c.352-.694.705-1.381 1.046-2.044l6.264-42.61c-.12-1.117-.272-2.052-.458-2.497-.667-1.59-3.243-2.322-3.243-2.322s.921-2.288.858-2.417l3.99-.57.02-.128 10.31-1.522-1.478 10.137c12.005-3.12 11.944-20.135.536-27.205-35.085-21.742-78.99 37.532-70.186 81.215.319 1.21.694 2.366 1.115 3.21 1.426 2.85 2.671 4.629 2.671 4.629-17.452 3.948-33.357-15.188-31.655-29.763-3.605 4.87-7.91 11.625-8.713 22.074-.95 12.34 5.83 14.374 5.83 14.374l-2.711.271s-13.78.123-14.247-7.815C13.153 106.237.66 106.084.66 106.084s9.39-3.13 10.542-19.767C12.347 69.78 14.123 54.045.66 42.832c0 0 8.565 1.483 15.318-2.47 6.754-3.953 6.754-4.612 10.213-5.106 3.46-.495 5.106 2.306 5.106 2.306s-7.742-1.483-8.565 15.813c-.57 11.984-.905 25.154-2.316 34.743 3.818-8.781 10.225-19.185 13.258-25.154C38.012 54.42 37.58 50.039 36.6 48.4c-.983-1.636-2.84-2.292-2.512-3.166.263-.702 16.722-4.66 21.805-5.821zM16.83 64.728l1.264-1.446-1.448-1.264-1.262 1.447zm156.71 19.548c-.859-8.505 3.321-26.243 14.058-25.429-4.391 4.743-7.74 18.768-6.804 25.672 2.489 18.356 24.677 24.41 39.693 9.394-16.244 20.742-44.706 12.526-46.947-9.637zm-7.275-27.283c2.475-4.143 6.61-5.93 12.213-3.732l-4.002 6.791c-4.79-3.243-7.843.646-9.363 4.861-.984 6.225-2.45 12.44 6.488 13.384.18.019.554-.134.553.054l-.002 2.425c-7.926.522-15.024 1.492-22.837 2.852 0 0 1.279-2.505 2.608-6.21.737-2.055 1.71-5.92 2.43-8.953l4.72-31.824c-.134-2.276-.36-4.913-.716-5.76-.668-1.59-3.243-2.322-3.243-2.322s.92-2.289.858-2.416l4.76-.68.002-.015 7.255-1.071.049-.129 20.524-2.395c.195-.023-6.67 13.17-7.24 13.626-.57.456-2.053-.057-3.364-2.737-1.312-2.68-.685-4.96-1.995-6.442-1.312-1.482-2.624-1.596-4.049-.456-.404.323-.916 1.108-1.445 2.067zm76.254-43.703s-2.835 2.184-3.581 5.774c-.745 3.59 0 14.516 0 14.516s-4.773.468-6.563-2.966-2.088-9.209-4.475-11.393c-2.387-2.185-6.562-1.405-6.264 6.086.565 14.186 27.57 36.824 21.118 59.492-4.957 17.42-22.13 24.625-38.42 23.23 13.338-2.4 24.574-9.38 28.169-23.73 5.533-22.082-20.736-39.604-19.667-57.119.354-5.807 2.061-9.014 4.136-10.725 4.202-3.47 12.02-2.278 15.674 1.122 1.374-4.785 9.873-4.287 9.873-4.287zm-44.68 58.553c1.03 1.254 2.19 2.297 3.297 2.49 3.083.54 4.547-2.464 6.781-8.475 2.236-6.01 3.237-9.092 5.24-9.863 2.003-.77 5.086-.54 5.086-.54s-3.698 7.552-3.698 13.177c0 5.624 1.05 7.378 1.05 7.378s-6.291.636-12.455 1.098c-6.165.462-20.959 3.159-20.959 3.159s.771-1.541 2.928-5.779a631.62 631.62 0 0 1 3.072-5.948l5.915-40.233a8.467 8.467 0 0 0-.42-1.78c-.435-1.194-1.208-1.93-1.983-3.088l-.026-1.624c.035.072 1.684-.138 3.44-.383l.007-.051 10.312-1.523-.01.06c2.446-.413 4.862-.83 4.886-.865l.114 1.772s-2.746 0-4.462 2.976c-.489.846-1.065 2.188-1.65 3.741zm12.463-52.79v-.001zM80.441 36.365l4.535-.649.007-.041 10.31-1.523-3.655 25.338c4.367 2.412 8.308 6.282 10.686 11.4l5.702-38.787 10.312-1.522-8.343 57.834-10.45 1.384 1.757-11.958c-.393-2.173-1.026-4.368-2.04-6.096-1.847-3.152-4.924-5.539-8.385-6.984L86.95 91.987l-6.348.841-.007.038-9.617 1.477.322-1.565s3.077-.446 4.23-3.377c.652-1.653 2.19-7.684 3.41-12.635l1.98-13.463c-5.651.732-10.243 4.414-10.076 11.812-2.948-5.583-1.867-10.873-.004-13.637 2.374-3.521 6.496-5.063 11.063-4.861l1.577-10.73c-.137-2.006-.348-4.056-.654-4.785-.667-1.59-3.243-2.321-3.243-2.321s.922-2.29.858-2.416zM19.35 45.096c-1.312 2.447-5.376 3.608-7.983 3.271 2.972 3.468 4.46 7.941 4.973 12.432 0 0 1.767-12.366 3.01-15.703z"/></g></g></svg>